<mxfile host="Electron" agent="Mozilla/5.0 (Windows NT 10.0; Win64; x64) AppleWebKit/537.36 (KHTML, like Gecko) draw.io/26.2.2 Chrome/134.0.6998.178 Electron/35.1.2 Safari/537.36" version="26.2.2">
  <diagram name="Page-1" id="4zedqT1g0FT4DpQfcfPO">
    <mxGraphModel dx="4254" dy="1717" grid="0" gridSize="10" guides="0" tooltips="1" connect="1" arrows="1" fold="1" page="1" pageScale="1" pageWidth="650" pageHeight="400" background="#000000" math="0" shadow="0">
      <root>
        <mxCell id="0" />
        <mxCell id="1" parent="0" />
        <mxCell id="AFGlyQcK97kbM2TXUzzW-24" value="&lt;font style=&quot;color: rgb(255, 255, 255); font-size: 14px;&quot;&gt;Data provided by&amp;nbsp;&lt;/font&gt;&lt;div&gt;&lt;font style=&quot;color: rgb(255, 255, 255); font-size: 14px;&quot;&gt;vehicle manufacturer / OEM&lt;/font&gt;&lt;/div&gt;" style="rounded=1;whiteSpace=wrap;html=1;fillColor=#dae8fc;gradientColor=#7ea6e0;strokeColor=#6c8ebf;labelPosition=center;verticalLabelPosition=bottom;align=center;verticalAlign=top;arcSize=19;" parent="1" vertex="1">
          <mxGeometry x="-1158" y="142" width="480" height="560" as="geometry" />
        </mxCell>
        <mxCell id="AFGlyQcK97kbM2TXUzzW-1" value="&lt;font style=&quot;color: rgb(255, 255, 255); font-size: 14px;&quot;&gt;Data provided by OEM, supplier&lt;/font&gt;&lt;div&gt;&lt;font style=&quot;color: rgb(255, 255, 255); font-size: 14px;&quot;&gt;or other Catena-X company&lt;/font&gt;&lt;/div&gt;" style="rounded=1;whiteSpace=wrap;html=1;fillColor=#f5f5f5;gradientColor=#666666;strokeColor=#666666;labelPosition=center;verticalLabelPosition=bottom;align=center;verticalAlign=top;arcSize=19;" parent="1" vertex="1">
          <mxGeometry x="-584" y="44" width="480" height="560" as="geometry" />
        </mxCell>
        <mxCell id="AFGlyQcK97kbM2TXUzzW-25" value="&lt;font style=&quot;color: rgb(255, 255, 255); font-size: 14px;&quot;&gt;Data provided by supplier&lt;/font&gt;&lt;div&gt;&lt;font style=&quot;color: rgb(255, 255, 255); font-size: 14px;&quot;&gt;or other Catena-X company&lt;/font&gt;&lt;/div&gt;&lt;div&gt;&lt;font style=&quot;color: rgb(255, 255, 255); font-size: 14px;&quot;&gt;along the supply chain&lt;/font&gt;&lt;/div&gt;" style="rounded=1;whiteSpace=wrap;html=1;fillColor=#d5e8d4;gradientColor=#97d077;strokeColor=#82b366;labelPosition=center;verticalLabelPosition=bottom;align=center;verticalAlign=top;arcSize=19;" parent="1" vertex="1">
          <mxGeometry x="16" y="144" width="480" height="560" as="geometry" />
        </mxCell>
        <mxCell id="d_SFfGqaBKh9WaCq0247-2" value="&lt;a href=&quot;https://github.com/eclipse-tractusx/sldt-semantic-models/tree/main/io.catenax.quality_task&quot;&gt;&lt;font style=&quot;font-size: 13px;&quot; face=&quot;Helvetica&quot;&gt;&lt;b&gt;io.catenax.quality_task&lt;/b&gt;&lt;/font&gt;&lt;/a&gt;" style="html=1;outlineConnect=0;whiteSpace=wrap;fillColor=#FFE0E0;shape=mxgraph.archimate3.application;appType=deliverable;" vertex="1" parent="1">
          <mxGeometry x="-551" y="96" width="274" height="76" as="geometry" />
        </mxCell>
        <mxCell id="d_SFfGqaBKh9WaCq0247-3" value="&lt;a href=&quot;https://github.com/eclipse-tractusx/sldt-semantic-models/tree/main/io.catenax.quality_task_attachment&quot;&gt;&lt;font style=&quot;font-size: 13px;&quot; face=&quot;Verdana&quot;&gt;&lt;b&gt;io.catenax.quality_attachment&lt;/b&gt;&lt;/font&gt;&lt;/a&gt;" style="html=1;outlineConnect=0;whiteSpace=wrap;fillColor=#FFE0E0;shape=mxgraph.archimate3.application;appType=deliverable;" vertex="1" parent="1">
          <mxGeometry x="-421" y="189" width="274" height="76" as="geometry" />
        </mxCell>
        <mxCell id="d_SFfGqaBKh9WaCq0247-4" value="&lt;h1 class=&quot;Box-sc-g0xbh4-0 jGhzSQ prc-Heading-Heading-6CmGO&quot; tabindex=&quot;-1&quot; id=&quot;file-name-id&quot;&gt;&lt;font style=&quot;font-size: 12px;&quot; face=&quot;Verdana&quot;&gt;&lt;a style=&quot;&quot; href=&quot;https://github.com/eclipse-tractusx/sldt-semantic-models/tree/main/io.catenax.early_warning_notification&quot;&gt;io.catenax.early_warning_notification&lt;/a&gt;&lt;/font&gt;&lt;/h1&gt;" style="html=1;outlineConnect=0;whiteSpace=wrap;fillColor=#FFE0E0;shape=mxgraph.archimate3.application;appType=deliverable;fontSize=13;" vertex="1" parent="1">
          <mxGeometry x="-421" y="283" width="274" height="76" as="geometry" />
        </mxCell>
        <mxCell id="d_SFfGqaBKh9WaCq0247-5" value="&lt;h1 class=&quot;Box-sc-g0xbh4-0 jGhzSQ prc-Heading-Heading-6CmGO&quot; tabindex=&quot;-1&quot; id=&quot;file-name-id&quot;&gt;&lt;font style=&quot;font-size: 13px;&quot;&gt;&lt;a style=&quot;&quot; href=&quot;https://github.com/eclipse-tractusx/sldt-semantic-models/tree/main/io.catenax.failure_pattern&quot;&gt;io.catenax.failure_pattern&lt;/a&gt;&lt;/font&gt;&lt;/h1&gt;" style="html=1;outlineConnect=0;whiteSpace=wrap;fillColor=#FFE0E0;shape=mxgraph.archimate3.application;appType=deliverable;" vertex="1" parent="1">
          <mxGeometry x="-421" y="376" width="274" height="76" as="geometry" />
        </mxCell>
        <mxCell id="d_SFfGqaBKh9WaCq0247-6" value="&lt;h1 id=&quot;file-name-id&quot; tabindex=&quot;-1&quot; class=&quot;Box-sc-g0xbh4-0 jGhzSQ prc-Heading-Heading-6CmGO&quot;&gt;&lt;font style=&quot;font-size: 13px;&quot;&gt;&lt;a style=&quot;&quot; href=&quot;https://github.com/eclipse-tractusx/sldt-semantic-models/tree/main/io.catenax.report_8d&quot;&gt;io.catenax.report_8d&lt;/a&gt;&lt;/font&gt;&lt;/h1&gt;" style="html=1;outlineConnect=0;whiteSpace=wrap;fillColor=#FFE0E0;shape=mxgraph.archimate3.application;appType=deliverable;" vertex="1" parent="1">
          <mxGeometry x="-421" y="469" width="274" height="76" as="geometry" />
        </mxCell>
        <mxCell id="d_SFfGqaBKh9WaCq0247-9" style="edgeStyle=orthogonalEdgeStyle;rounded=0;orthogonalLoop=1;jettySize=auto;html=1;exitX=0.25;exitY=1;exitDx=0;exitDy=0;exitPerimeter=0;entryX=0;entryY=0.5;entryDx=0;entryDy=0;entryPerimeter=0;endArrow=none;startFill=0;strokeColor=#FFFFFF;strokeWidth=2;" edge="1" parent="1" source="d_SFfGqaBKh9WaCq0247-2" target="d_SFfGqaBKh9WaCq0247-3">
          <mxGeometry relative="1" as="geometry" />
        </mxCell>
        <mxCell id="d_SFfGqaBKh9WaCq0247-10" style="edgeStyle=orthogonalEdgeStyle;rounded=0;orthogonalLoop=1;jettySize=auto;html=1;exitX=0.25;exitY=1;exitDx=0;exitDy=0;exitPerimeter=0;entryX=0;entryY=0.5;entryDx=0;entryDy=0;entryPerimeter=0;endArrow=none;startFill=0;strokeColor=#FFFFFF;strokeWidth=2;" edge="1" parent="1" source="d_SFfGqaBKh9WaCq0247-2" target="d_SFfGqaBKh9WaCq0247-4">
          <mxGeometry relative="1" as="geometry" />
        </mxCell>
        <mxCell id="d_SFfGqaBKh9WaCq0247-11" style="edgeStyle=orthogonalEdgeStyle;rounded=0;orthogonalLoop=1;jettySize=auto;html=1;exitX=0.25;exitY=1;exitDx=0;exitDy=0;exitPerimeter=0;entryX=0;entryY=0.5;entryDx=0;entryDy=0;entryPerimeter=0;endArrow=none;startFill=0;strokeColor=#FFFFFF;strokeWidth=2;" edge="1" parent="1" source="d_SFfGqaBKh9WaCq0247-2" target="d_SFfGqaBKh9WaCq0247-5">
          <mxGeometry relative="1" as="geometry" />
        </mxCell>
        <mxCell id="d_SFfGqaBKh9WaCq0247-13" style="edgeStyle=orthogonalEdgeStyle;rounded=0;orthogonalLoop=1;jettySize=auto;html=1;exitX=0;exitY=0.5;exitDx=0;exitDy=0;exitPerimeter=0;entryX=0.25;entryY=1;entryDx=0;entryDy=0;entryPerimeter=0;endArrow=none;startFill=0;strokeWidth=2;strokeColor=#FFFFFF;" edge="1" parent="1" source="d_SFfGqaBKh9WaCq0247-6" target="d_SFfGqaBKh9WaCq0247-2">
          <mxGeometry relative="1" as="geometry" />
        </mxCell>
        <mxCell id="d_SFfGqaBKh9WaCq0247-14" value="&lt;font style=&quot;font-size: 13px;&quot;&gt;link via&amp;nbsp;&lt;/font&gt;&lt;div&gt;&lt;font style=&quot;font-size: 13px;&quot;&gt;qualityTaskId&lt;/font&gt;&lt;/div&gt;" style="edgeLabel;html=1;align=center;verticalAlign=middle;resizable=0;points=[];" vertex="1" connectable="0" parent="d_SFfGqaBKh9WaCq0247-13">
          <mxGeometry x="0.7713" relative="1" as="geometry">
            <mxPoint x="1" y="-18" as="offset" />
          </mxGeometry>
        </mxCell>
        <mxCell id="d_SFfGqaBKh9WaCq0247-22" style="edgeStyle=orthogonalEdgeStyle;rounded=0;orthogonalLoop=1;jettySize=auto;html=1;exitX=0;exitY=0.5;exitDx=0;exitDy=0;exitPerimeter=0;endArrow=none;startFill=0;entryX=0.25;entryY=0;entryDx=0;entryDy=0;entryPerimeter=0;strokeColor=#FFFFFF;strokeWidth=2;" edge="1" parent="1" source="d_SFfGqaBKh9WaCq0247-16" target="d_SFfGqaBKh9WaCq0247-19">
          <mxGeometry relative="1" as="geometry">
            <mxPoint x="-1054.3333740234375" y="524.6666259765625" as="targetPoint" />
          </mxGeometry>
        </mxCell>
        <mxCell id="d_SFfGqaBKh9WaCq0247-16" value="&lt;span aria-hidden=&quot;true&quot; class=&quot;Box-sc-g0xbh4-0 hXyrdx prc-Text-Text-0ima0&quot;&gt;&lt;/span&gt;&lt;h1 id=&quot;file-name-id-wide&quot; tabindex=&quot;-1&quot; class=&quot;Box-sc-g0xbh4-0 jGhzSQ prc-Heading-Heading-6CmGO&quot;&gt;&lt;font style=&quot;font-size: 13px;&quot;&gt;&lt;a href=&quot;https://github.com/eclipse-tractusx/sldt-semantic-models/tree/main/io.catenax.fleet.claim_data&quot;&gt;io.catenax.fleet.claim_data&lt;/a&gt;&lt;/font&gt;&lt;/h1&gt;" style="html=1;outlineConnect=0;whiteSpace=wrap;fillColor=#FFE0E0;shape=mxgraph.archimate3.application;appType=deliverable;" vertex="1" parent="1">
          <mxGeometry x="-1014" y="300" width="228" height="76" as="geometry" />
        </mxCell>
        <mxCell id="d_SFfGqaBKh9WaCq0247-17" value="&lt;span aria-hidden=&quot;true&quot; class=&quot;Box-sc-g0xbh4-0 hXyrdx prc-Text-Text-0ima0&quot;&gt;&lt;/span&gt;&lt;h1 id=&quot;file-name-id-wide&quot; tabindex=&quot;-1&quot; class=&quot;Box-sc-g0xbh4-0 jGhzSQ prc-Heading-Heading-6CmGO&quot;&gt;&lt;font style=&quot;font-size: 13px;&quot;&gt;&lt;a href=&quot;https://github.com/eclipse-tractusx/sldt-semantic-models/tree/main/io.catenax.parts_analyses&quot;&gt;io.catenax.parts_analyses&lt;/a&gt;&lt;/font&gt;&lt;/h1&gt;" style="html=1;outlineConnect=0;whiteSpace=wrap;fillColor=#FFE0E0;shape=mxgraph.archimate3.application;appType=deliverable;" vertex="1" parent="1">
          <mxGeometry x="86" y="230" width="340" height="76" as="geometry" />
        </mxCell>
        <mxCell id="d_SFfGqaBKh9WaCq0247-18" value="&lt;span aria-hidden=&quot;true&quot; class=&quot;Box-sc-g0xbh4-0 hXyrdx prc-Text-Text-0ima0&quot;&gt;&lt;/span&gt;&lt;h1 id=&quot;file-name-id-wide&quot; tabindex=&quot;-1&quot; class=&quot;Box-sc-g0xbh4-0 jGhzSQ prc-Heading-Heading-6CmGO&quot;&gt;&lt;font style=&quot;font-size: 13px;&quot;&gt;&lt;a href=&quot;https://github.com/eclipse-tractusx/sldt-semantic-models/tree/main/io.catenax.fleet.diagnostic_data&quot;&gt;io.catenax.fleet.diagnostic_data&lt;/a&gt;&lt;/font&gt;&lt;/h1&gt;" style="html=1;outlineConnect=0;whiteSpace=wrap;fillColor=#FFE0E0;shape=mxgraph.archimate3.application;appType=deliverable;" vertex="1" parent="1">
          <mxGeometry x="-1014" y="415" width="228" height="76" as="geometry" />
        </mxCell>
        <mxCell id="d_SFfGqaBKh9WaCq0247-19" value="&lt;span aria-hidden=&quot;true&quot; class=&quot;Box-sc-g0xbh4-0 hXyrdx prc-Text-Text-0ima0&quot;&gt;&lt;/span&gt;&lt;h1 id=&quot;file-name-id-wide&quot; tabindex=&quot;-1&quot; class=&quot;Box-sc-g0xbh4-0 jGhzSQ prc-Heading-Heading-6CmGO&quot;&gt;&lt;font style=&quot;font-size: 13px;&quot;&gt;&lt;a href=&quot;https://github.com/eclipse-tractusx/sldt-semantic-models/tree/main/io.catenax.fleet.vehicles&quot;&gt;io.catenax.fleet.vehicles&lt;/a&gt;&lt;/font&gt;&lt;/h1&gt;" style="html=1;outlineConnect=0;whiteSpace=wrap;fillColor=#FFE0E0;shape=mxgraph.archimate3.application;appType=deliverable;" vertex="1" parent="1">
          <mxGeometry x="-1119" y="555" width="228" height="76" as="geometry" />
        </mxCell>
        <mxCell id="d_SFfGqaBKh9WaCq0247-20" value="&lt;span aria-hidden=&quot;true&quot; class=&quot;Box-sc-g0xbh4-0 hXyrdx prc-Text-Text-0ima0&quot;&gt;&lt;/span&gt;&lt;h1 id=&quot;file-name-id-wide&quot; tabindex=&quot;-1&quot; class=&quot;Box-sc-g0xbh4-0 jGhzSQ prc-Heading-Heading-6CmGO&quot;&gt;&lt;font style=&quot;background-color: transparent; font-size: 13px;&quot;&gt;&lt;a style=&quot;&quot; href=&quot;https://github.com/eclipse-tractusx/sldt-semantic-models/tree/main/io.catenax.warranty_claim_request&quot;&gt;io.catenax.warranty_claim_request&lt;/a&gt;&lt;/font&gt;&lt;/h1&gt;" style="html=1;outlineConnect=0;whiteSpace=wrap;fillColor=#FFE0E0;shape=mxgraph.archimate3.application;appType=deliverable;" vertex="1" parent="1">
          <mxGeometry x="-1014" y="186" width="228" height="76" as="geometry" />
        </mxCell>
        <mxCell id="d_SFfGqaBKh9WaCq0247-21" style="edgeStyle=orthogonalEdgeStyle;rounded=0;orthogonalLoop=1;jettySize=auto;html=1;exitX=0.25;exitY=0;exitDx=0;exitDy=0;exitPerimeter=0;entryX=0;entryY=0.5;entryDx=0;entryDy=0;entryPerimeter=0;endArrow=none;startFill=0;strokeColor=#FFFFFF;strokeWidth=2;" edge="1" parent="1" source="d_SFfGqaBKh9WaCq0247-19" target="d_SFfGqaBKh9WaCq0247-18">
          <mxGeometry relative="1" as="geometry" />
        </mxCell>
        <mxCell id="d_SFfGqaBKh9WaCq0247-23" value="&lt;font style=&quot;font-size: 13px;&quot;&gt;link via&lt;/font&gt;&lt;div&gt;&lt;font style=&quot;font-size: 13px;&quot;&gt;anonymizedVIN&lt;/font&gt;&lt;/div&gt;" style="edgeLabel;html=1;align=center;verticalAlign=middle;resizable=0;points=[];" vertex="1" connectable="0" parent="d_SFfGqaBKh9WaCq0247-21">
          <mxGeometry x="-0.4128" relative="1" as="geometry">
            <mxPoint y="11" as="offset" />
          </mxGeometry>
        </mxCell>
        <mxCell id="d_SFfGqaBKh9WaCq0247-24" style="edgeStyle=orthogonalEdgeStyle;rounded=0;orthogonalLoop=1;jettySize=auto;html=1;entryX=0;entryY=0.5;entryDx=0;entryDy=0;entryPerimeter=0;strokeColor=#FFFFFF;strokeWidth=2;endArrow=none;startFill=0;" edge="1" parent="1" source="d_SFfGqaBKh9WaCq0247-18" target="d_SFfGqaBKh9WaCq0247-2">
          <mxGeometry relative="1" as="geometry">
            <Array as="points">
              <mxPoint x="-716" y="453" />
              <mxPoint x="-716" y="134" />
            </Array>
          </mxGeometry>
        </mxCell>
        <mxCell id="d_SFfGqaBKh9WaCq0247-25" style="edgeStyle=orthogonalEdgeStyle;rounded=0;orthogonalLoop=1;jettySize=auto;html=1;entryX=0;entryY=0.5;entryDx=0;entryDy=0;entryPerimeter=0;strokeWidth=2;endArrow=none;startFill=0;strokeColor=#FFFFFF;" edge="1" parent="1" source="d_SFfGqaBKh9WaCq0247-16" target="d_SFfGqaBKh9WaCq0247-2">
          <mxGeometry relative="1" as="geometry">
            <Array as="points">
              <mxPoint x="-716" y="338" />
              <mxPoint x="-716" y="134" />
            </Array>
          </mxGeometry>
        </mxCell>
        <mxCell id="d_SFfGqaBKh9WaCq0247-26" style="edgeStyle=orthogonalEdgeStyle;rounded=0;orthogonalLoop=1;jettySize=auto;html=1;entryX=0;entryY=0.5;entryDx=0;entryDy=0;entryPerimeter=0;strokeColor=#FFFFFF;strokeWidth=2;endArrow=none;startFill=0;" edge="1" parent="1" source="d_SFfGqaBKh9WaCq0247-20" target="d_SFfGqaBKh9WaCq0247-2">
          <mxGeometry relative="1" as="geometry">
            <Array as="points">
              <mxPoint x="-717" y="224" />
              <mxPoint x="-717" y="134" />
            </Array>
          </mxGeometry>
        </mxCell>
        <mxCell id="d_SFfGqaBKh9WaCq0247-27" value="&lt;font style=&quot;font-size: 13px;&quot;&gt;link via&amp;nbsp;&lt;/font&gt;&lt;div&gt;&lt;font style=&quot;font-size: 13px;&quot;&gt;qualityTaskId&lt;/font&gt;&lt;/div&gt;" style="edgeLabel;html=1;align=center;verticalAlign=middle;resizable=0;points=[];" vertex="1" connectable="0" parent="d_SFfGqaBKh9WaCq0247-26">
          <mxGeometry x="0.4897" y="1" relative="1" as="geometry">
            <mxPoint as="offset" />
          </mxGeometry>
        </mxCell>
        <mxCell id="d_SFfGqaBKh9WaCq0247-31" style="edgeStyle=orthogonalEdgeStyle;rounded=0;orthogonalLoop=1;jettySize=auto;html=1;strokeColor=#FFFFFF;endArrow=none;startFill=0;strokeWidth=2;entryX=1;entryY=0.5;entryDx=0;entryDy=0;entryPerimeter=0;" edge="1" parent="1" source="d_SFfGqaBKh9WaCq0247-28" target="d_SFfGqaBKh9WaCq0247-2">
          <mxGeometry relative="1" as="geometry">
            <Array as="points">
              <mxPoint x="-46" y="372" />
              <mxPoint x="-46" y="134" />
            </Array>
          </mxGeometry>
        </mxCell>
        <mxCell id="d_SFfGqaBKh9WaCq0247-28" value="&lt;span class=&quot;Box-sc-g0xbh4-0 hXyrdx prc-Text-Text-0ima0&quot; aria-hidden=&quot;true&quot;&gt;&lt;/span&gt;&lt;h1 id=&quot;file-name-id-wide&quot; tabindex=&quot;-1&quot; class=&quot;Box-sc-g0xbh4-0 jGhzSQ prc-Heading-Heading-6CmGO&quot;&gt;&lt;font style=&quot;font-size: 13px;&quot;&gt;&lt;a href=&quot;https://github.com/eclipse-tractusx/sldt-semantic-models/tree/main/io.catenax.manufactured_parts_quality_information&quot;&gt;io.catenax.manufactured_parts_quality_information&lt;/a&gt;&lt;/font&gt;&lt;/h1&gt;" style="html=1;outlineConnect=0;whiteSpace=wrap;fillColor=#FFE0E0;shape=mxgraph.archimate3.application;appType=deliverable;" vertex="1" parent="1">
          <mxGeometry x="86" y="334" width="340" height="76" as="geometry" />
        </mxCell>
        <mxCell id="d_SFfGqaBKh9WaCq0247-29" value="&lt;span aria-hidden=&quot;true&quot; class=&quot;Box-sc-g0xbh4-0 hXyrdx prc-Text-Text-0ima0&quot;&gt;&lt;/span&gt;&lt;h1 id=&quot;file-name-id-wide&quot; tabindex=&quot;-1&quot; class=&quot;Box-sc-g0xbh4-0 jGhzSQ prc-Heading-Heading-6CmGO&quot;&gt;&lt;span aria-hidden=&quot;true&quot; class=&quot;Box-sc-g0xbh4-0 hXyrdx prc-Text-Text-0ima0&quot;&gt;&lt;/span&gt;&lt;/h1&gt;&lt;h1 id=&quot;file-name-id-wide&quot; tabindex=&quot;-1&quot; class=&quot;Box-sc-g0xbh4-0 jGhzSQ prc-Heading-Heading-6CmGO&quot;&gt;&lt;font style=&quot;font-size: 13px;&quot;&gt;&lt;a href=&quot;https://github.com/eclipse-tractusx/sldt-semantic-models/tree/main/io.catenax.warranty_claim_request_verification&quot;&gt;io.catenax.warranty_claim_request_verification&lt;/a&gt;&lt;/font&gt;&lt;/h1&gt;" style="html=1;outlineConnect=0;whiteSpace=wrap;fillColor=#FFE0E0;shape=mxgraph.archimate3.application;appType=deliverable;" vertex="1" parent="1">
          <mxGeometry x="86" y="438" width="340" height="76" as="geometry" />
        </mxCell>
        <mxCell id="d_SFfGqaBKh9WaCq0247-30" style="edgeStyle=orthogonalEdgeStyle;rounded=0;orthogonalLoop=1;jettySize=auto;html=1;entryX=1;entryY=0.5;entryDx=0;entryDy=0;entryPerimeter=0;strokeColor=#FFFFFF;endArrow=none;startFill=0;strokeWidth=2;" edge="1" parent="1" source="d_SFfGqaBKh9WaCq0247-17" target="d_SFfGqaBKh9WaCq0247-2">
          <mxGeometry relative="1" as="geometry">
            <Array as="points">
              <mxPoint x="-46" y="268" />
              <mxPoint x="-46" y="134" />
            </Array>
          </mxGeometry>
        </mxCell>
        <mxCell id="d_SFfGqaBKh9WaCq0247-32" style="edgeStyle=orthogonalEdgeStyle;rounded=0;orthogonalLoop=1;jettySize=auto;html=1;entryX=1;entryY=0.5;entryDx=0;entryDy=0;entryPerimeter=0;strokeColor=#FFFFFF;strokeWidth=2;endArrow=none;startFill=0;" edge="1" parent="1" source="d_SFfGqaBKh9WaCq0247-29" target="d_SFfGqaBKh9WaCq0247-2">
          <mxGeometry relative="1" as="geometry">
            <Array as="points">
              <mxPoint x="-46" y="476" />
              <mxPoint x="-46" y="134" />
            </Array>
          </mxGeometry>
        </mxCell>
        <mxCell id="d_SFfGqaBKh9WaCq0247-33" value="&lt;font style=&quot;font-size: 13px;&quot;&gt;link via&amp;nbsp;&lt;/font&gt;&lt;div&gt;&lt;font style=&quot;font-size: 13px;&quot;&gt;qualityTaskId&lt;/font&gt;&lt;/div&gt;" style="edgeLabel;html=1;align=center;verticalAlign=middle;resizable=0;points=[];" vertex="1" connectable="0" parent="d_SFfGqaBKh9WaCq0247-32">
          <mxGeometry x="0.5073" y="3" relative="1" as="geometry">
            <mxPoint x="46" y="-3" as="offset" />
          </mxGeometry>
        </mxCell>
      </root>
    </mxGraphModel>
  </diagram>
</mxfile>
